<svg xmlns="http://www.w3.org/2000/svg" viewBox="0 0 240 160" shapeRendering="crispEdges" role="img" aria-label="MINECOUNTER-STRIKE">
  <rect width="240" height="160" fill="#1c1b1b"/>
  <rect y="0" width="240" height="100" fill="#a9d8e8"/>
  <rect y="100" width="240" height="60" fill="#5f6a68"/>
  <g stroke="#3a3f3d" stroke-width="2">
    <line x1="0" y1="100" x2="240" y2="100"/>
    <line x1="0" y1="130" x2="240" y2="130"/>
    <line x1="60" y1="100" x2="60" y2="160"/>
    <line x1="180" y1="100" x2="180" y2="160"/>
  </g>
  <!-- 方块士兵（红） -->
  <g>
    <rect x="30" y="66" width="18" height="18" fill="#e62429" stroke="#1c1b1b" stroke-width="2"/>
    <rect x="34" y="72" width="4" height="4" fill="#ffffff"/>
    <rect x="42" y="72" width="4" height="4" fill="#ffffff"/>
    <rect x="33" y="84" width="12" height="14" fill="#e62429" stroke="#1c1b1b" stroke-width="2"/>
    <rect x="30" y="98" width="4" height="12" fill="#a31217" stroke="#1c1b1b" stroke-width="2"/>
    <rect x="44" y="98" width="4" height="12" fill="#a31217" stroke="#1c1b1b" stroke-width="2"/>
    <rect x="27" y="84" width="4" height="12" fill="#a31217" stroke="#1c1b1b" stroke-width="2"/>
    <rect x="47" y="84" width="4" height="12" fill="#a31217" stroke="#1c1b1b" stroke-width="2"/>
  </g>
  <!-- 准星 -->
  <g stroke="#ffffff" stroke-width="4">
    <line x1="150" y1="48" x2="150" y2="58"/>
    <line x1="150" y1="72" x2="150" y2="82"/>
    <line x1="120" y1="65" x2="130" y2="65"/>
    <line x1="140" y1="65" x2="150" y2="65"/>
    <line x1="160" y1="65" x2="170" y2="65"/>
  </g>
  <rect x="149" y="63" width="2" height="4" fill="#e62429"/>
  <!-- 方块枪 -->
  <g>
    <rect x="150" y="118" width="46" height="8" fill="#4a4a4a" stroke="#1c1b1b" stroke-width="2"/>
    <rect x="164" y="126" width="14" height="10" fill="#2f2f2f" stroke="#1c1b1b" stroke-width="2"/>
    <rect x="196" y="116" width="8" height="8" fill="#ffd700" stroke="#1c1b1b" stroke-width="2"/>
  </g>
  <text x="12" y="22" font-family="monospace, sans-serif" font-size="16" font-weight="bold" fill="#e62429">MCS</text>
  <text x="12" y="36" font-family="monospace, sans-serif" font-size="8" font-weight="bold" fill="#1c1b1b">MINECOUNTER-STRIKE</text>
</svg>
